<svg id="Group_77" data-name="Group 77" xmlns="http://www.w3.org/2000/svg" xmlns:xlink="http://www.w3.org/1999/xlink" width="108.851" height="20.817" viewBox="0 0 108.851 20.817">
  <defs>
    <linearGradient id="linear-gradient" x1="0.505" y1="-0.965" x2="0.495" y2="0.059" gradientUnits="objectBoundingBox">
      <stop offset="0" stop-color="#358c7b"/>
      <stop offset="0.526" stop-color="#33a65e"/>
    </linearGradient>
    <linearGradient id="linear-gradient-2" x1="-0.015" y1="-3.678" x2="1.015" y2="-2.781" gradientUnits="objectBoundingBox">
      <stop offset="0" stop-color="#222b90"/>
      <stop offset="1" stop-color="#367b99"/>
    </linearGradient>
    <linearGradient id="linear-gradient-3" y1="-6.004" x2="1" y2="-6.004" gradientUnits="objectBoundingBox">
      <stop offset="0" stop-color="#f90"/>
      <stop offset="1" stop-color="#ff8000"/>
    </linearGradient>
    <linearGradient id="linear-gradient-4" y1="-6.004" x2="1" y2="-6.004" gradientUnits="objectBoundingBox">
      <stop offset="0" stop-color="#ff8000"/>
      <stop offset="1" stop-color="#cc1953"/>
    </linearGradient>
    <linearGradient id="linear-gradient-5" y1="-6.004" x2="1" y2="-6.004" gradientUnits="objectBoundingBox">
      <stop offset="0" stop-color="#cc1953"/>
      <stop offset="1" stop-color="#241284"/>
    </linearGradient>
    <linearGradient id="linear-gradient-6" x1="-0.001" y1="-6.004" x2="0.999" y2="-6.004" gradientUnits="objectBoundingBox">
      <stop offset="0" stop-color="#222b90"/>
      <stop offset="1" stop-color="#3559a6"/>
    </linearGradient>
    <linearGradient id="linear-gradient-7" x1="-0.039" y1="-3.499" x2="1.039" y2="-2.96" xlink:href="#linear-gradient-5"/>
    <linearGradient id="linear-gradient-8" x1="-0.036" y1="-2.897" x2="1.036" y2="-3.563" gradientUnits="objectBoundingBox">
      <stop offset="0.003" stop-color="#fc0"/>
      <stop offset="1" stop-color="#ce1938"/>
    </linearGradient>
    <linearGradient id="linear-gradient-9" x1="0.084" y1="0.199" x2="0.916" y2="-1.112" gradientUnits="objectBoundingBox">
      <stop offset="0.003" stop-color="#ffd100"/>
      <stop offset="1" stop-color="#fd5a22"/>
    </linearGradient>
  </defs>
  <path id="Path_20" data-name="Path 20" d="M127.8,13.818c0,4.367,2.692,6.979,6.68,6.979,1.994,0,3.669-.558,4.606-2.014V20.8h3.649V0h-3.789V8.833c-.857-1.456-2.453-2.114-4.447-2.114C130.612,6.72,127.8,9.392,127.8,13.818Zm11.266,0a3.759,3.759,0,0,1-3.729,4.048,3.715,3.715,0,0,1-3.729-4.048c0-2.532,1.635-4.128,3.729-4.128A3.818,3.818,0,0,1,139.066,13.818Z" transform="translate(-102.317)" fill="#fff"/>
  <path id="Path_21" data-name="Path 21" d="M218.567,42.414a3.048,3.048,0,0,1-3.27,2.413,3.413,3.413,0,0,1-3.709-3.37h9.551a7.8,7.8,0,0,0,.179-1.715c0-3.868-2.632-6.042-6.52-6.042a6.712,6.712,0,0,0-7,6.959c0,4.466,3.15,7.138,7.5,7.138,3.29,0,5.523-1.376,6.5-4.108Zm-6.979-3.489a3.157,3.157,0,0,1,3.21-2.473c1.695,0,2.851.917,2.851,2.353l-.02.12Z" transform="translate(-166.365 -26.98)" fill="#fff"/>
  <path id="Path_22" data-name="Path 22" d="M289.067,42.414a3.048,3.048,0,0,1-3.27,2.413,3.413,3.413,0,0,1-3.709-3.37h9.551a7.8,7.8,0,0,0,.179-1.715c0-3.868-2.632-6.042-6.52-6.042a6.712,6.712,0,0,0-7,6.959c0,4.466,3.15,7.138,7.5,7.138,3.29,0,5.523-1.376,6.5-4.108Zm-6.979-3.489a3.157,3.157,0,0,1,3.21-2.473c1.695,0,2.851.917,2.851,2.353l-.02.12Z" transform="translate(-222.808 -26.98)" fill="#fff"/>
  <path id="Path_23" data-name="Path 23" d="M362.1,47.8v-3.43h-7.956l7.737-7.537V33.7H349.639v3.27h7.477L349.4,44.527V47.8Z" transform="translate(-279.731 -26.98)" fill="#fff"/>
  <path id="Path_24" data-name="Path 24" d="M425.367,42.414a3.048,3.048,0,0,1-3.27,2.413,3.413,3.413,0,0,1-3.709-3.37h9.551a7.8,7.8,0,0,0,.179-1.715c0-3.868-2.632-6.042-6.52-6.042a6.712,6.712,0,0,0-7,6.959c0,4.466,3.15,7.138,7.5,7.138,3.29,0,5.523-1.376,6.5-4.108Zm-6.979-3.489a3.157,3.157,0,0,1,3.21-2.473c1.695,0,2.851.917,2.851,2.353l-.02.12Z" transform="translate(-331.93 -26.98)" fill="#fff"/>
  <path id="Path_25" data-name="Path 25" d="M497.057,38.645v.4h3.689V37.967A3.872,3.872,0,0,0,496.7,33.8a3.5,3.5,0,0,0-3.39,2.114V33.8H489.5V47.877h3.808V38.8c0-1.436.778-2.233,1.954-2.233A1.957,1.957,0,0,1,497.057,38.645Z" transform="translate(-391.895 -27.06)" fill="#fff"/>
  <rect id="Rectangle_84" data-name="Rectangle 84" width="4.666" height="2.732" transform="translate(16.929 6.72)" fill="#40ab5d"/>
  <rect id="Rectangle_85" data-name="Rectangle 85" width="4.666" height="2.732" transform="translate(16.929 10.508)" fill="url(#linear-gradient)"/>
  <rect id="Rectangle_86" data-name="Rectangle 86" width="4.666" height="2.732" transform="translate(16.929 14.297)" fill="url(#linear-gradient-2)"/>
  <rect id="Rectangle_87" data-name="Rectangle 87" width="4.666" height="2.732" transform="translate(0 18.085)" fill="url(#linear-gradient-3)"/>
  <rect id="Rectangle_88" data-name="Rectangle 88" width="4.666" height="2.732" transform="translate(5.643 18.085)" fill="url(#linear-gradient-4)"/>
  <rect id="Rectangle_89" data-name="Rectangle 89" width="4.666" height="2.732" transform="translate(11.286 18.085)" fill="url(#linear-gradient-5)"/>
  <rect id="Rectangle_90" data-name="Rectangle 90" width="4.666" height="2.732" transform="translate(16.929 18.085)" fill="url(#linear-gradient-6)"/>
  <rect id="Rectangle_91" data-name="Rectangle 91" width="4.666" height="2.732" transform="translate(11.286 14.297)" fill="url(#linear-gradient-7)"/>
  <rect id="Rectangle_92" data-name="Rectangle 92" width="4.666" height="2.732" transform="translate(5.643 14.297)" fill="url(#linear-gradient-8)"/>
  <rect id="Rectangle_93" data-name="Rectangle 93" width="4.666" height="2.732" transform="translate(5.643 10.508)" fill="url(#linear-gradient-9)"/>
</svg>
