<svg id="Group_82" data-name="Group 82" xmlns="http://www.w3.org/2000/svg" width="191.346" height="29.296" viewBox="0 0 191.346 29.296">
  <path id="Path_28" data-name="Path 28" d="M160.318,7.579h-2.275v19.6h4.55V7.579Z" transform="translate(-59.533 -2.855)" fill="#fff"/>
  <path id="Path_29" data-name="Path 29" d="M220.057,30.273h-4.3V22.624c0-1.85-1.124-2.8-2.4-2.8-1.325,0-2.4.8-2.4,2.85v7.574h-4.25l-.05-7.724a2.418,2.418,0,0,0-2.35-2.7c-1.275,0-2.475.725-2.475,2.85v7.574h-4.249V15.925h4.249v2.2a4.073,4.073,0,0,1,3.725-2.3c2.25,0,3.774.725,4.7,2.65a4.6,4.6,0,0,1,4.174-2.675c3.4,0,5.549,2.15,5.6,6.374v8.1Z" transform="translate(-74.428 -5.952)" fill="#fff"/>
  <path id="Path_30" data-name="Path 30" d="M269.817,18.11a4.758,4.758,0,0,1,4.1-2.35c3.2,0,5.224,1.95,5.224,5.949v8.524h-4.224l-.05-7.624c0-1.85-1.025-2.8-2.475-2.8-1.475,0-2.625.725-2.625,2.85v7.549h-4.224l-.025-14.273h4.249Z" transform="translate(-100.018 -5.937)" fill="#fff"/>
  <path id="Path_31" data-name="Path 31" d="M297.871,12.712V7.138h-4.2v5.574h-2.65v3.3l2.65.05V27.01h4.2V16.037h3.1V12.712Z" transform="translate(-109.625 -2.689)" fill="#fff"/>
  <path id="Path_32" data-name="Path 32" d="M79.566,7.579H75.341L75.316,15.1a5.183,5.183,0,0,0-4.224-2.25c-3.6,0-6.849,2.625-6.849,7.3s3.274,7.324,6.849,7.324a5.048,5.048,0,0,0,4.224-2.25V27.2h4.249Zm-4.224,12.6a3.539,3.539,0,0,1-3.424,3.549,3.328,3.328,0,0,1-3.324-3.549,3.344,3.344,0,0,1,3.3-3.574A3.582,3.582,0,0,1,75.341,20.177Zm10.049,7h2.124v-14.2H83.265l.05,14.2Zm13.1,0H95.013l-5.824-14.2h4.5l3.024,8.574,3-8.574h4.5Zm-15.2-19.6h3.974v3.974H83.29Z" transform="translate(-24.2 -2.855)" fill="#38ec8d" fill-rule="evenodd"/>
  <path id="Path_33" data-name="Path 33" d="M145.041,23.249a7.374,7.374,0,1,0-14.748-.125,7.23,7.23,0,0,0,7.449,7.424h2.975V26.874s-.825.025-2.65.025c-1.5,0-3.3-.7-3.5-2.325h10.324A8.757,8.757,0,0,0,145.041,23.249Zm-10.423-1.325a2.976,2.976,0,0,1,3.175-2.575,2.79,2.79,0,0,1,3,2.575Z" transform="translate(-49.08 -5.952)" fill="#fff"/>
  <path id="Path_34" data-name="Path 34" d="M184.371,23.249a7.25,7.25,0,1,0-14.5-.125,7.158,7.158,0,0,0,7.324,7.424h2.925V26.874s-.8.025-2.6.025c-1.45,0-3.224-.7-3.449-2.325H184.2A5.289,5.289,0,0,0,184.371,23.249Zm-10.248-1.325a2.936,2.936,0,0,1,3.1-2.575,2.724,2.724,0,0,1,2.925,2.575Z" transform="translate(-63.989 -5.952)" fill="#fff"/>
  <path id="Path_35" data-name="Path 35" d="M252.515,23.249a7.374,7.374,0,1,0-14.748-.125,7.23,7.23,0,0,0,7.449,7.424h2.974V26.874s-.825.025-2.65.025c-1.5,0-3.3-.7-3.5-2.325h10.323A8.713,8.713,0,0,0,252.515,23.249Zm-10.424-1.325a2.976,2.976,0,0,1,3.174-2.575,2.79,2.79,0,0,1,3,2.575Z" transform="translate(-89.564 -5.952)" fill="#fff"/>
  <path id="Path_36" data-name="Path 36" d="M15.5,0H0V29.3H15.5A14.648,14.648,0,0,0,15.5,0Z" fill="#38ec8d"/>
  <path id="Path_37" data-name="Path 37" d="M27.518,14.944l-2.6-4.5-4.524,2.6V7.82H15.169v5.224l-4.524-2.6-2.625,4.5,4.524,2.625L8.021,20.193l2.625,4.524,4.524-2.625v5.224h5.224V22.093l4.524,2.625,2.6-4.524-4.524-2.625Z" transform="translate(-3.021 -2.946)" fill="#050327"/>
  <path id="Path_38" data-name="Path 38" d="M32.387,12.018,27.863,14.63l2.612,4.524L35,16.542Z" transform="translate(-10.496 -4.527)" fill="#fff"/>
</svg>
