<svg xmlns="http://www.w3.org/2000/svg" width="32.644" height="32.644" viewBox="0 0 32.644 32.644">
  <path id="spotify" d="M16.322,0A16.322,16.322,0,1,0,32.644,16.322,16.322,16.322,0,0,0,16.322,0Zm7.1,23.687a1.116,1.116,0,0,1-1.527.4,16.43,16.43,0,0,0-8.648-1.919,21.453,21.453,0,0,0-4.486.592,1.116,1.116,0,0,1-.592-2.152,23.24,23.24,0,0,1,4.947-.669,21.79,21.79,0,0,1,4.766.345,16.086,16.086,0,0,1,5.139,1.876A1.116,1.116,0,0,1,23.425,23.687Zm2.075-4.31a1.322,1.322,0,0,1-1.809.474,19.462,19.462,0,0,0-10.244-2.273,25.417,25.417,0,0,0-5.314.7,1.322,1.322,0,0,1-.7-2.55,27.522,27.522,0,0,1,5.86-.793,25.815,25.815,0,0,1,5.646.409,19.057,19.057,0,0,1,6.087,2.222A1.322,1.322,0,0,1,25.5,19.378Zm1.276-3.919a1.614,1.614,0,0,1-.817-.222C17.7,10.41,6.985,13.28,6.878,13.31a1.622,1.622,0,0,1-.861-3.127A33.755,33.755,0,0,1,13.2,9.211a31.671,31.671,0,0,1,6.925.5A23.373,23.373,0,0,1,27.6,12.437a1.622,1.622,0,0,1-.82,3.022Z" fill="#00d95f"/>
</svg>
