<svg id="youtube" xmlns="http://www.w3.org/2000/svg" width="44.095" height="30.873" viewBox="0 0 44.095 30.873">
  <path id="Path_18" data-name="Path 18" d="M43.186,4.831A5.524,5.524,0,0,0,39.3.944C35.849,0,22.047,0,22.047,0S8.245,0,4.794.908A5.637,5.637,0,0,0,.908,4.831C0,8.281,0,15.437,0,15.437s0,7.192.908,10.606a5.525,5.525,0,0,0,3.887,3.887c3.487.944,17.253.944,17.253.944s13.8,0,17.253-.908a5.524,5.524,0,0,0,3.887-3.886c.908-3.451.908-10.606.908-10.606s.036-7.192-.908-10.642Zm0,0" transform="translate(0 0)" fill="red"/>
  <path id="Path_19" data-name="Path 19" d="M204.969,115.705l11.477-6.611-11.477-6.611Zm0,0" transform="translate(-187.317 -93.658)" fill="#fff"/>
</svg>
